<svg xmlns="http://www.w3.org/2000/svg" width="19" height="15" viewBox="0 0 18 15">
    <path fill="#000" fill-rule="nonzero" d="M17.143 3.75v9.643c0 .887-.72 1.607-1.607 1.607H1.607C.72 15 0 14.28 0 13.393V3.75c0-.887.72-1.607 1.607-1.607h2.947l.411-1.102A1.605 1.605 0 0 1 6.47 0h4.202c.67 0 1.269.415 1.503 1.041l.415 1.102h2.947c.887 0 1.607.72 1.607 1.607zm-4.554 4.821a4.021 4.021 0 0 0-4.018-4.017A4.021 4.021 0 0 0 4.554 8.57 4.021 4.021 0 0 0 8.57 12.59a4.021 4.021 0 0 0 4.018-4.018zm-1.071 0a2.95 2.95 0 0 1-2.947 2.947A2.95 2.95 0 0 1 5.625 8.57a2.95 2.95 0 0 1 2.946-2.946 2.95 2.95 0 0 1 2.947 2.946z"/>
</svg>
