<svg xmlns="http://www.w3.org/2000/svg" width="19" height="19" viewBox="0 0 25 19">
    <path fill="#000" fill-rule="nonzero" d="M22.098 0H2.008C.9 0 0 .912 0 2.036v14.928C0 18.088.9 19 2.009 19h20.09c1.108 0 2.008-.912 2.008-2.036V2.036c0-1.124-.9-2.036-2.009-2.036zM7.366 4.071c1.477 0 2.679 1.218 2.679 2.715 0 1.497-1.202 2.714-2.679 2.714-1.477 0-2.678-1.217-2.678-2.714 0-1.497 1.2-2.715 2.678-2.715zm4.688 10.043c0 .45-.419.815-.938.815h-7.5c-.519 0-.937-.365-.937-.815V13.3c0-1.349 1.26-2.443 2.812-2.443h.21c.514.216 1.075.34 1.665.34a4.27 4.27 0 0 0 1.666-.34h.21c1.552 0 2.812 1.094 2.812 2.443v.814zm9.375-2.239c0 .187-.151.34-.335.34h-6.027a.338.338 0 0 1-.335-.34v-.679c0-.186.15-.339.335-.339h6.027c.184 0 .335.153.335.34v.678zm0-2.714c0 .186-.151.339-.335.339h-6.027a.338.338 0 0 1-.335-.34v-.678c0-.186.15-.34.335-.34h6.027c.184 0 .335.154.335.34v.679zm0-2.715c0 .187-.151.34-.335.34h-6.027a.338.338 0 0 1-.335-.34v-.678c0-.187.15-.34.335-.34h6.027c.184 0 .335.153.335.34v.678z"/>
</svg>
