<svg xmlns="http://www.w3.org/2000/svg" width="19" height="19" viewBox="0 0 19 19">
    <path fill="#000" fill-rule="nonzero" d="M18.443 2.779L16.221.557a1.775 1.775 0 0 0-2.51 0l-2.09 2.09 4.732 4.732 2.09-2.09a1.775 1.775 0 0 0 0-2.51zm-9.123-.76a1.478 1.478 0 0 0-2.09 0L2.839 6.412a.591.591 0 0 0 0 .836l.836.837a.591.591 0 0 0 .837 0L8.276 4.32l.836.836-5.602 5.602a12.089 12.089 0 0 0-3.467 7.211v.009a.887.887 0 0 0 .978.98 12.088 12.088 0 0 0 7.221-3.468l7.274-7.274-3.06-3.06L9.32 2.02z"/>
</svg>
