<svg xmlns="http://www.w3.org/2000/svg" width="19" height="19" viewBox="0 0 12 19">
    <path fill="#000" fill-rule="nonzero" d="M10.094 0H1.78C.798 0 0 .798 0 1.781V17.22C0 18.202.798 19 1.781 19h8.313c.983 0 1.781-.798 1.781-1.781V1.78C11.875.798 11.077 0 10.094 0zM5.938 17.813c-.657 0-1.188-.531-1.188-1.188 0-.657.53-1.188 1.188-1.188.656 0 1.187.531 1.187 1.188 0 .657-.53 1.188-1.188 1.188zm4.156-4.008c0 .245-.2.445-.446.445H2.227a.447.447 0 0 1-.446-.445V2.227c0-.245.2-.446.446-.446h7.421c.245 0 .446.2.446.446v11.578z"/>
</svg>
