<svg xmlns="http://www.w3.org/2000/svg" width="19" height="17" viewBox="0 0 25 17">
    <path fill="#000" fill-rule="nonzero" d="M24.093 4.663c-6.723-6.218-17.18-6.216-23.9 0a.603.603 0 0 0-.013.872l1.3 1.289a.616.616 0 0 0 .85.014c5.536-5.072 14.089-5.073 19.627 0a.617.617 0 0 0 .85-.014l1.3-1.29a.603.603 0 0 0-.014-.871zm-11.95 7.48a2.428 2.428 0 1 0 0 4.857 2.428 2.428 0 0 0 0-4.857zm7.69-3.172c-4.373-3.868-11.012-3.864-15.38 0a.6.6 0 0 0-.022.878l1.306 1.29a.62.62 0 0 0 .837.03c3.186-2.753 7.96-2.747 11.137 0 .243.21.61.195.837-.03l1.307-1.29a.6.6 0 0 0-.022-.878z"/>
</svg>
